<svg xmlns="http://www.w3.org/2000/svg" viewBox="0 0 32 32">
  <rect width="32" height="32" fill="#C97B5B"/>
  <polyline points="15.85,17.14 15.69,17.14 15.52,17.11 15.35,17.06 15.19,16.98 15.04,16.88 14.90,16.76 14.77,16.61 14.66,16.45 14.58,16.26 14.52,16.06 14.49,15.85 14.49,15.63 14.52,15.41 14.58,15.19 14.67,14.97 14.80,14.77 14.96,14.57 15.14,14.40 15.36,14.26 15.60,14.14 15.86,14.05 16.14,14.00 16.42,13.99 16.72,14.02 17.01,14.09 17.30,14.21 17.58,14.36 17.84,14.56 18.07,14.81 18.27,15.08 18.44,15.39 18.57,15.73 18.64,16.10 18.67,16.48 18.64,16.87 18.56,17.26 18.42,17.64 18.22,18.02 17.97,18.37 17.66,18.68 17.30,18.96 16.90,19.19 16.45,19.37 15.98,19.49 15.48,19.54 14.96,19.52 14.44,19.43 13.93,19.26 13.43,19.01 12.96,18.69 12.53,18.30 12.15,17.84 11.82,17.31 11.57,16.74 11.40,16.11 11.31,15.46 11.31,14.78 11.42,14.09 11.62,13.40 11.92,12.74 12.33,12.10 12.83,11.52 13.42,10.99 14.10,10.55 14.85,10.19 15.66,9.93 16.53,9.79 17.42,9.77 18.34,9.88 19.25,10.12 20.14,10.49 20.99,11.00 21.79,11.63 22.50,12.40 23.12,13.27 23.62,14.25 23.99,15.31 24.21,16.44 24.27,17.62 24.17,18.83 23.89,20.04 23.43,21.24 22.80,22.38 21.99,23.45 21.02,24.43 19.89,25.27 18.62,25.97 17.24,26.50 15.75,26.84 14.20,26.98 12.60,26.89 10.99,26.57 9.40,26.02 7.86,25.23 6.41,24.21" fill="none" stroke="#FBF7F1" stroke-width="1.98" stroke-linecap="round" stroke-linejoin="round"/>
  <circle cx="16.0" cy="16.0" r="1.22" fill="#FBF7F1"/>
</svg>
